<?xml version="1.0" encoding="utf-8"?>
<!-- Generator: Adobe Illustrator 22.0.1, SVG Export Plug-In . SVG Version: 6.00 Build 0)  -->
<svg version="1.1" id="svg2" xmlns="http://www.w3.org/2000/svg" xmlns:xlink="http://www.w3.org/1999/xlink" x="0px" y="0px"
	 viewBox="0 0 1383 1383" style="enable-background:new 0 0 1383 1383;" xml:space="preserve">
<style type="text/css">
	.st0{fill:#FFFFFF;stroke:#FFFFFF;}
	.st1{fill:#FFFFFF;stroke:#FFFFFF;stroke-miterlimit:10;}
</style>
<g id="layer1" transform="translate(12.495 6.756)">
	<g id="g4182">
		<g id="g5747" transform="translate(81.631 113.771) scale(.29074)">
			<path id="path4155" class="st0" d="M2169.3,1238.2l-0.6,321.2l-0.6,321.2l-26.4-74.6v-0.2l-34.2,715
				c33.6,94.8,51.6,145.5,51.8,145.7c0.2,0.2,19.3,1.3,42.4,2.5c70,3.4,156.8,10.9,222.7,19.1c15.3,1.9,28.3,2.9,29.3,2.1
				c1-0.8,1.1-327.7,1-726.7l-0.6-725.3H2169.3L2169.3,1238.2z"/>
			<path id="path4157" class="st0" d="M1654.1,1237.2v726.1c0,399.4,0.4,726.5,1,727.1c0.6,0.6,25.2-1.9,55.1-5.2
				c29.8-3.3,70.9-7.5,91.4-9.2c31.4-2.7,125.4-8.6,136.1-8.8c3.3,0,3.4-16.3,3.8-307.6l0.6-307.6l22.8,64.2c3.4,9.9,4.6,13,8,22.8
				l34.2-714.8c-7.3-20.5-3.4-9.8-11.7-33.1c-27.9-79-51.6-145.7-52.6-148.7l-1.9-5.4h-286.8L1654.1,1237.2z"/>
			<path id="path5715" class="st0" d="M2169.3,1238.2l-0.6,321.2l-0.6,321.2l-26.4-74.6v-0.2l-34.2,715
				c33.6,94.8,51.6,145.5,51.8,145.7c0.2,0.2,19.3,1.3,42.4,2.5c70,3.4,156.8,10.9,222.7,19.1c15.3,1.9,28.3,2.9,29.3,2.1
				c1-0.8,1.1-327.7,1-726.7l-0.6-725.3H2169.3L2169.3,1238.2z"/>
			<path id="path5717" class="st0" d="M1654.1,1237.2v726.1c0,399.4,0.4,726.5,1,727.1c0.6,0.6,25.2-1.9,55.1-5.2
				c29.8-3.3,70.9-7.5,91.4-9.2c31.4-2.7,125.4-8.6,136.1-8.8c3.3,0,3.4-16.3,3.8-307.6l0.6-307.6l22.8,64.2c3.4,9.9,4.6,13,8,22.8
				l34.2-714.8c-7.3-20.5-3.4-9.8-11.7-33.1c-27.9-79-51.6-145.7-52.6-148.7l-1.9-5.4h-286.8L1654.1,1237.2z"/>
			<path id="path5719" class="st1" d="M1654.1,1237.2v407.6l287.2,761.7c0-17.4,0-27,0.2-46.8l0.6-307.6l22.8,64.2
				c126.2,357.9,194,549.8,194.4,550.2c0.2,0.2,19.3,1.3,42.4,2.5c70,3.4,156.8,10.9,222.7,19.1c15.3,1.9,28.3,2.9,29.3,2.1
				c0.6-0.6,1-160.8,1-386.9l-285.6-821.7l-0.2,77.8l-0.6,321.2l-26.4-74.6c-25.8-72.8-43-121.6-146.8-414.9
				c-27.9-79-51.6-145.7-52.6-148.7l-1.9-5.4h-286.4V1237.2L1654.1,1237.2z"/>
			<path id="path5721" class="st1" d="M1654.1,1237.2l287.7,815.4v-0.4l22.8,64.2c126.4,357.7,194.2,549.6,194.6,550
				c0.2,0.2,19.3,1.3,42.4,2.5c70,3.4,156.8,10.9,222.7,19.1c15.1,1.9,28.3,2.9,29.1,2.1l-285.2-809.8v0.2l-26.4-74.6
				c-25.8-72.8-43-121.6-146.8-414.9c-27.9-79-51.6-145.7-52.6-148.7l-1.9-5.4h-143.2L1654.1,1237.2L1654.1,1237.2z"/>
		</g>
	</g>
</g>
</svg>
