<?xml version="1.0" encoding="utf-8"?>
<!-- Generator: Adobe Illustrator 22.0.1, SVG Export Plug-In . SVG Version: 6.00 Build 0)  -->
<svg version="1.1" id="Google_alt" xmlns="http://www.w3.org/2000/svg" xmlns:xlink="http://www.w3.org/1999/xlink" x="0px" y="0px"
	 viewBox="0 0 512 512" style="enable-background:new 0 0 512 512;" xml:space="preserve">
<style type="text/css">
	.st0{fill:#FFFFFF;}
</style>
<path class="st0" d="M322.7,243c0.9,4.6,1.3,9.5,1.3,14.6c0,39.7-26.6,67.9-66.7,67.9c-38.4,0-69.4-31.1-69.4-69.4
	s31.1-69.4,69.4-69.4c18.8,0,34.4,6.9,46.4,18.1l-19.6,19.6v0c-7.3-6.9-16.5-10.5-26.9-10.5c-22.9,0-41.5,19.4-41.5,42.3
	c0,22.9,18.6,42.3,41.5,42.3c20.8,0,34.9-11.9,37.9-28.2h-37.9V243H322.7L322.7,243z"/>
</svg>
