<?xml version="1.0" encoding="utf-8"?>
<!-- Generator: Adobe Illustrator 22.0.1, SVG Export Plug-In . SVG Version: 6.00 Build 0)  -->
<svg version="1.1" id="Layer_1" xmlns="http://www.w3.org/2000/svg" xmlns:xlink="http://www.w3.org/1999/xlink" x="0px" y="0px"
	 viewBox="0 0 1792 1792" style="enable-background:new 0 0 1792 1792;" xml:space="preserve">
<style type="text/css">
	.st0{fill:#FFFFFF;}
</style>
<path class="st0" d="M1152.1,896c0,11.1-2.8,21.1-8.4,30.2c-5.6,9-13.2,15.9-22.7,20.7c2.3,8.7,3.4,17.9,3.4,27.5
	c0,29.5-10.1,56.9-30.5,82c-20.3,25.1-48,45-83,59.6c-35.1,14.6-73.1,21.9-114.3,21.9s-79.2-7.3-114.2-21.9s-62.6-34.4-82.9-59.6
	c-20.3-25.1-30.5-52.5-30.5-82c0-9,1.1-17.9,3.2-26.9c-9.7-4.8-17.6-11.7-23.4-21c-5.9-9.2-8.9-19.4-8.9-30.5
	c0-15.6,5.5-29,16.6-40.1c11.1-11.1,24.5-16.7,40.3-16.7c16.2,0,30,6,41.4,18c41.5-29,90.6-44.4,147.2-46.3L918.6,662
	c0.6-2.5,2-4.5,4.3-6c2.3-1.6,4.8-2,7.4-1.4l105.5,23.1c3.4-7,8.6-12.7,15.4-17c6.9-4.3,14.4-6.4,22.6-6.4
	c11.8,0,21.9,4.2,30.3,12.5c8.4,8.3,12.6,18.3,12.6,30.2s-4.2,21.9-12.6,30.3c-8.4,8.4-18.5,12.6-30.3,12.6s-21.9-4.2-30.2-12.5
	s-12.5-18.3-12.5-30.2l-95.5-21.2L906,810.9c57.1,1.7,106.6,16.9,148.3,45.7c11.1-11.6,24.7-17.4,40.9-17.4
	c15.8,0,29.2,5.6,40.3,16.7C1146.6,867,1152.1,880.4,1152.1,896z M759.4,952.9c0,11.8,4.2,21.9,12.5,30.3s18.3,12.6,30.2,12.6
	c11.8,0,21.9-4.2,30.3-12.6s12.6-18.5,12.6-30.3c0-11.8-4.2-21.9-12.6-30.2c-8.4-8.3-18.5-12.5-30.3-12.5c-11.6,0-21.7,4.2-30,12.6
	C763.7,931.2,759.4,941.3,759.4,952.9z M990.9,1054.4c2.1-2.1,3.2-4.6,3.2-7.4c0-2.8-1.1-5.3-3.2-7.4c-1.9-1.9-4.3-2.9-7.1-2.9
	c-2.9,0-5.3,0.9-7.4,2.9c-7.8,8-19.3,13.9-34.6,17.7c-15.2,3.8-30.5,5.7-45.7,5.7c-15.2,0-30.5-1.9-45.7-5.7
	c-15.2-3.8-26.7-9.7-34.6-17.7c-2.1-1.9-4.6-2.9-7.4-2.9c-2.8,0-5.3,0.9-7.1,2.9c-2.1,1.9-3.2,4.3-3.2,7.3c0,2.9,1.1,5.5,3.2,7.6
	c8.2,8.2,19.5,14.7,33.9,19.4c14.4,4.8,26.1,7.6,35,8.4c8.9,0.8,17.6,1.3,26,1.3c8.4,0,17.1-0.4,26-1.3c9-0.8,20.6-3.7,35-8.4
	C971.4,1069.1,982.7,1062.6,990.9,1054.4z M990,995.8c11.8,0,21.9-4.2,30.2-12.6c8.3-8.4,12.5-18.5,12.5-30.3
	c0-11.6-4.2-21.7-12.6-30c-8.4-8.4-18.4-12.6-30-12.6c-11.8,0-21.9,4.2-30.3,12.5c-8.4,8.3-12.6,18.3-12.6,30.2
	c0,11.8,4.2,21.9,12.6,30.3C968.1,991.6,978.2,995.8,990,995.8z"/>
</svg>
