<?xml version="1.0" encoding="utf-8"?>
<!-- Generator: Adobe Illustrator 22.0.1, SVG Export Plug-In . SVG Version: 6.00 Build 0)  -->
<svg version="1.1" id="Layer_1" xmlns="http://www.w3.org/2000/svg" xmlns:xlink="http://www.w3.org/1999/xlink" x="0px" y="0px"
	 viewBox="0 0 1024 1024" style="enable-background:new 0 0 1024 1024;" xml:space="preserve">
<style type="text/css">
	.st0{fill:#FFFFFF;}
</style>
<g>
	<g>
		<g>
			<path class="st0" d="M547.5,579.5c0-24.2,0-48.1,0-72.6c5.2,3.5,10,6.8,14.8,10.2c4.3,3,5.1,3,9.5,0
				c24.7-16.4,49.4-32.9,74.2-49.3c0.7-0.5,1.5-1,2.6-1.6c0.1,1.1,0.2,2,0.2,2.8c0,31.6,0,63.2,0,94.8c0,10.5-5.3,15.8-15.8,15.8
				c-27.5,0-55,0-82.4,0C549.7,579.5,548.7,579.5,547.5,579.5z"/>
			<path class="st0" d="M547.7,433.1c1,0,1.9,0,2.8,0c29,0,58,0,87.1,0c5.2,0,9.2,3.2,10.8,8.2c0.7,2.2,0,3.3-1.8,4.4
				c-22.5,15.1-44.9,30.2-67.4,45.3c-3.2,2.2-6.5,4.3-9.6,6.5c-1.7,1.2-3.2,1.3-5,0.1c-5.1-3.3-10.4-6.5-15.4-9.8
				c-0.8-0.6-1.7-1.8-1.7-2.8c-0.1-17,0-33.9,0-50.9C547.4,433.9,547.5,433.7,547.7,433.1z"/>
		</g>
		<g>
			<path class="st0" d="M534.6,648.9c-53.2-11.1-106.2-22.2-159.4-33.4c0-1.3,0-2.4,0-3.5c0-67.5,0-135-0.1-202.5
				c0-2.8,0.7-3.8,3.5-4.3c42.5-8.1,85.1-16.4,127.6-24.6c9.4-1.8,18.8-3.6,28.4-5.5C534.6,466.4,534.6,557.5,534.6,648.9z
				 M492.2,511.7c-0.1-11.1-1.6-21.4-7.1-30.7c-4.4-7.5-10.4-13.2-19.1-15.7c-16.8-4.8-32.8,3.1-40.7,20.1
				c-5.1,10.9-6.1,22.4-5.2,34.2c0.8,10.2,3.8,19.7,10.4,27.8c13.1,16.1,37,16.2,50.3,0.2C489.7,537.1,492.1,524.5,492.2,511.7z"/>
			<path class="st0" d="M437.4,512c0-7.9,1-15.6,5.5-22.4c4.1-6.3,10.4-8.8,17.4-7.1c5.4,1.3,8.6,5.1,10.8,9.9
				c3.7,8.2,4.3,16.9,3.2,25.6c-0.6,4.8-2,9.7-4,14.2c-2.5,5.8-7.4,9.1-14,9.2c-6.6,0.1-11.1-3.3-14.3-8.7
				C438.3,526.4,437.4,519.3,437.4,512z"/>
		</g>
	</g>
</g>
</svg>
