<?xml version="1.0" encoding="utf-8"?>
<!-- Generator: Adobe Illustrator 22.0.1, SVG Export Plug-In . SVG Version: 6.00 Build 0)  -->
<svg version="1.1" id="Layer_1" xmlns="http://www.w3.org/2000/svg" xmlns:xlink="http://www.w3.org/1999/xlink" x="0px" y="0px"
	 viewBox="0 0 152 152" style="enable-background:new 0 0 152 152;" xml:space="preserve">
<style type="text/css">
	.st0{fill:#FFFFFF;}
</style>
<g transform="translate(0.000000,152.000000) scale(0.100000,-0.100000)">
	<path class="st0" d="M700.3,974.7c-61.5-13.8-105.1-62.1-108.7-120c-5.1-79.5,32.3-114.9,144.6-138.5
		c69.2-14.4,83.1-19.5,90.3-33.3c8.7-15.9-5.1-34.4-28.7-39c-39.5-7.2-85.1,0.5-124.6,21c-21,11.3-38.5,17.4-41,14.9
		c-2.1-2.6-14.9-20.5-28.7-39.5c-23.1-32.8-23.6-35.4-15.9-44.1c14.9-16.4,66.2-41,103.6-49.7c43.1-9.7,121-7.2,156.4,5.6
		c64.6,22.6,100,84.1,86.7,148.7c-11.8,56.9-57.4,89.2-155.4,109.8c-63.6,13.3-77.4,20-79.5,37.4c-1,10.3,2.1,15.9,11.8,22.6
		c20.5,13.3,84.1,7.7,119.5-10.3c14.9-7.7,29.2-12.3,31.8-10.8c10.3,6.2,51.8,70.3,49.7,76.4c-3.6,9.7-60,38-93.3,46.7
		C785.4,980.8,733.6,981.9,700.3,974.7z"/>
</g>
</svg>
