<?xml version="1.0" encoding="utf-8"?>
<!-- Generator: Adobe Illustrator 22.0.1, SVG Export Plug-In . SVG Version: 6.00 Build 0)  -->
<svg version="1.1" id="Layer_1" xmlns="http://www.w3.org/2000/svg" xmlns:xlink="http://www.w3.org/1999/xlink" x="0px" y="0px"
	 viewBox="0 0 2048 2048" style="enable-background:new 0 0 2048 2048;" xml:space="preserve">
<style type="text/css">
	.st0{fill:#FFFFFF;}
</style>
<g id="Layer_x0020_1">
	<path class="st0" d="M1287.5,842.2c-12-11-27.3-18.1-44-19.9c-36.3-4-72.9-6.1-109.6-7.1c-36.5-1-73.2-1-109.7-1
		c-36.6,0-73.2,0-109.7,1c-36.7,1-73.4,3.1-109.7,7.1c-16.7,1.9-31.9,9-44,20c-12,10.9-20.8,25.5-24.6,42.3
		c-5.2,22.5-7.8,46-9.2,69.6c-1.3,23.7-1.4,47.2-1.4,69.9c0,22.7,0,46.1,1.3,69.9c1.3,23.6,3.9,47.1,9.1,69.6
		c3.9,16.8,12.6,31.4,24.6,42.3c12,11,27.3,18.1,44,19.9c36.3,4,72.9,6.1,109.7,7.1c36.5,1,73.2,1,109.7,1c36.6,0,73.2,0,109.7-1
		c36.7-1,73.4-3.1,109.7-7.1c16.7-1.9,31.9-9,44-19.9c12-10.9,20.8-25.5,24.7-42.3c5.2-22.5,7.8-46,9.1-69.6
		c1.3-23.3,1.3-46.9,1.3-69.9l0,0v-1.1l0,0c0-45.6,0-93.8-10.2-138.3C1308.3,867.7,1299.5,853.1,1287.5,842.2L1287.5,842.2z
		 M942.3,1114.6V921.5v-10.4l9.3,4.8c28.1,14.7,56.1,29.3,84.1,43.9c33.7,17.6,67.5,35.2,101.5,53l10.8,5.6l-10.8,5.6l-92.8,48.1
		c-30.9,16-61.8,32-92.8,48.1l-9.3,4.8V1114.6L942.3,1114.6z"/>
</g>
</svg>
