<?xml version="1.0" encoding="utf-8"?>
<!-- Generator: Adobe Illustrator 22.0.1, SVG Export Plug-In . SVG Version: 6.00 Build 0)  -->
<svg version="1.1"
	 id="svg2" inkscape:version="0.48.5 r10040" sodipodi:docname="vrt.svg" xmlns:cc="http://creativecommons.org/ns#" xmlns:dc="http://purl.org/dc/elements/1.1/" xmlns:inkscape="http://www.inkscape.org/namespaces/inkscape" xmlns:rdf="http://www.w3.org/1999/02/22-rdf-syntax-ns#" xmlns:sodipodi="http://sodipodi.sourceforge.net/DTD/sodipodi-0.dtd" xmlns:svg="http://www.w3.org/2000/svg"
	 xmlns="http://www.w3.org/2000/svg" xmlns:xlink="http://www.w3.org/1999/xlink" x="0px" y="0px" viewBox="0 0 1000 1000.4"
	 style="enable-background:new 0 0 1000 1000.4;" xml:space="preserve">
<style type="text/css">
	.st0{fill:#FFFCFF;}
</style>
<sodipodi:namedview  bordercolor="#666666" borderopacity="1" fit-margin-bottom="0.5" fit-margin-left="0.5" fit-margin-right="0.5" fit-margin-top="0.5" gridtolerance="10" guidetolerance="10" id="namedview22" inkscape:current-layer="svg2" inkscape:cx="85.569476" inkscape:cy="1405.3595" inkscape:pageopacity="0" inkscape:pageshadow="2" inkscape:window-height="1035" inkscape:window-maximized="0" inkscape:window-width="1019" inkscape:window-x="894" inkscape:window-y="-18" inkscape:zoom="0.1153425" objecttolerance="10" pagecolor="#ffffff" showgrid="false">
	
		<inkscape:grid  empspacing="5" enabled="true" id="grid3012" originx="-1015.6105px" originy="1377.35px" snapvisiblegridlinesonly="true" type="xygrid" visible="true">
		</inkscape:grid>
</sodipodi:namedview>
<title  id="title4">VRT-logo-screen</title>
<desc  id="desc6">Created with Sketch.</desc>
<path class="st0" d="M499.8,353.6c-80.8,0-146.4,65.8-146.4,146.7c0,83.1,68,146.6,146.4,146.6c77,0,146.8-63.8,146.8-146.8V353.6
	H499.8z M474.1,464.4l-24.8,72.1c-0.3,0.8-1,1.4-1.9,1.4h-19.1c-0.9,0-1.6-0.6-1.9-1.4l-24.8-72.1c-0.4-1.3,0.5-2.6,1.9-2.6h16.6
	c0.9,0,1.6,0.6,1.9,1.4l15.9,49.7h0.3l15.6-49.7c0.2-0.8,1-1.4,1.9-1.4h16.5C473.6,461.8,474.5,463.1,474.1,464.4z M535,476.7
	c0,1.1-0.9,2-2,2c-0.3,0-0.5,0-0.8,0c-15.5-0.7-26.2,11.7-26.8,27.2v25l0,0l0,0v5c0,1.1-0.9,2-2,2h-15.9c-1.1,0-2-0.9-2-2v-72.1
	c0-1.1,0.9-2,2-2h15.1c1.1,0,2,0.9,2,2v8.5c8.3-10.2,18.8-11.6,28.5-11c1,0.1,1.8,0.9,1.8,2V476.7z M601.3,510.4
	c0,15.8-12,28.6-27.7,28.6l0,0c-16.8,0-28.5-12.3-28.5-30.6v-65.5c0-1,0.8-1.8,1.8-1.8h16.3c1,0,1.8,0.8,1.8,1.8v19h25
	c1,0,1.8,0.8,1.8,1.8v13.3c0,1-0.8,1.8-1.8,1.8h-25c0,0,0,29.3,0,30.2v0.8c0,6.5,3.7,10.6,9,10.6c5,0,8.6-3.6,9-9.5v-0.1
	c0.2-1.6,1.2-2.5,2.6-2.5h14c1,0,1.8,0.8,1.8,1.7C601.3,510.2,601.3,510.3,601.3,510.4z"/>
</svg>
