<?xml version="1.0" encoding="utf-8"?>
<!-- Generator: Adobe Illustrator 22.0.1, SVG Export Plug-In . SVG Version: 6.00 Build 0)  -->
<svg version="1.1" id="Layer_1" xmlns="http://www.w3.org/2000/svg" xmlns:xlink="http://www.w3.org/1999/xlink" x="0px" y="0px"
	 viewBox="0 0 1000 1000" style="enable-background:new 0 0 1000 1000;" xml:space="preserve">
<style type="text/css">
	.st0{fill:#FFFFFF;}
</style>
<g>
	<g transform="translate(0.000000,268.000000) scale(0.100000,-0.100000)">
		<path class="st0" d="M2894.3-2307.2v-862.7h223.9H3342v862.7v862.7h-223.9h-223.9V-2307.2z"/>
		<path class="st0" d="M3467.2-2307.2v-862.7h197.6h197.6l0.6,555.2c0.6,304.9,2,549.9,3.3,544.6c1.3-5.3,36.9-248.3,78.4-540
			c41.5-291.8,77.1-536.7,79-544.6c3.3-15.1,4-15.1,141.6-15.1c137.6,0,138.3,0,140.9,15.1c2,7.9,23,160,46.8,337.2
			c23,177.8,56.6,428.1,73.7,556.5l31.6,233.8l2-571.6l1.3-571l196.3,1.3l195.6,2v859.4v859.4l-291.1,2l-291.8,1.3l-3.3-14.5
			c-1.3-8.6-23.7-181.1-49.4-383.9c-56-441.9-49.4-397.8-54-385.3c-2.6,5.3-28.3,181.8-58,391.8c-29.7,210.1-55.3,383.9-57.3,387.2
			c-1.3,2.6-133,4.6-292.4,4.6h-289.1L3467.2-2307.2L3467.2-2307.2z"/>
		<path class="st0" d="M4981.9-2307.9v-863.3l374,3.3c323.3,2,380,4,422.8,13.8c126.4,29,195.6,92.2,223.3,203.5
			c13.2,55.3,20.4,252.2,19.8,600.6c0,376.7-7.3,586.8-22.4,644.1c-35.6,135-135.7,216-298.3,241c-84.3,13.2-258.1,20.4-489.9,20.4
			h-229.2L4981.9-2307.9L4981.9-2307.9z M5529.1-1758c41.5-21.1,40.8-18.4,44.1-443.9c2.6-401.7-3.3-578.9-20.4-621
			c-12.5-28.3-39.5-44.1-87.6-48.7l-35.6-4v568.3v568.3l39.5-4C5490.9-1745.5,5517.9-1752.1,5529.1-1758z"/>
		<path class="st0" d="M6121.2-2307.2v-862.7H6322h200.2l7.3,26.3c3.3,14.5,9.9,38.8,13.8,53.3l7.3,27.7l19.1-23.7
			c25.1-30.3,98.8-79,140.9-93.5c103.4-34.9,227.2-10.5,307.6,61.9c40.2,36.2,60.6,71.1,75.7,129.1c11.2,42.2,11.9,87.6,11.9,556.5
			v510.4l-17.8,38.2c-36.2,77.1-86.9,119.2-169.9,140.3c-58,14.5-150.2,14.5-202.8-0.6c-44.1-12.5-101.4-46.1-138.9-81
			c-11.9-11.9-23-21.1-24.4-21.1c-1.3,0-2.6,90.2-2.6,200.9v200.9h-214h-214L6121.2-2307.2L6121.2-2307.2z M6637.5-1987.2
			c39.5-16.5,39.5-14.5,42.2-428.7c1.3-211.4-0.6-402.4-4-437.9c-5.9-55.3-8.6-63.9-23.7-77.1c-22.4-19.1-51.4-19.1-73.1,0
			c-28.3,24.4-30.3,65.2-28.3,502.5c2,434,2,430,37.5,443.2C6611.8-1976.6,6612.4-1976.6,6637.5-1987.2z"/>
	</g>
</g>
</svg>
