<?xml version="1.0" encoding="utf-8"?>
<!-- Generator: Adobe Illustrator 22.0.1, SVG Export Plug-In . SVG Version: 6.00 Build 0)  -->
<svg version="1.1" id="Layer_1" xmlns="http://www.w3.org/2000/svg" xmlns:xlink="http://www.w3.org/1999/xlink" x="0px" y="0px"
	 viewBox="0 0 300 300" style="enable-background:new 0 0 300 300;" xml:space="preserve">
<style type="text/css">
	.st0{fill:#FFFFFF;}
</style>
<path class="st0" d="M192.5,123.7c-3.2,1.4-6.5,2.3-10,2.8c3.6-2.2,6.4-5.6,7.7-9.6c-3.4,2-7.1,3.4-11.1,4.3
	c-3.2-3.4-7.7-5.5-12.7-5.5c-9.6,0-17.4,7.8-17.4,17.4c0,1.4,0.2,2.7,0.4,4c-14.5-0.7-27.3-7.7-35.9-18.2c-1.5,2.6-2.4,5.6-2.4,8.8
	c0,6,3.1,11.4,7.7,14.5c-2.9-0.1-5.5-0.9-7.9-2.2c0,0.1,0,0.2,0,0.2c0,8.5,6,15.5,14,17.1c-1.4,0.4-3,0.6-4.6,0.6
	c-1.1,0-2.2-0.1-3.3-0.3c2.2,6.9,8.7,11.9,16.3,12.1c-6,4.7-13.5,7.5-21.7,7.5c-1.4,0-2.8-0.1-4.1-0.2c7.7,4.9,16.9,7.8,26.7,7.8
	c32.1,0,49.6-26.5,49.6-49.6c0-0.8,0-1.5-0.1-2.3C187.2,130.3,190.1,127.2,192.5,123.7L192.5,123.7z"/>
</svg>
